<svg width="81" height="104" viewBox="0 0 81 104" fill="none" xmlns="http://www.w3.org/2000/svg">
<path d="M60.7431 5.73948L57.8898 2.86974L55.0365 0H40.5H25.9635L23.1102 2.86974L20.2569 5.73948H10.1284H0V11.5937V17.448H40.5H81V11.5937V5.73948H70.8716H60.7431Z" fill="white"/>
<path d="M74.9364 95.3901L74.9971 59.174L75.0577 22.9579H40.5H5.94229L6.00292 59.174L6.06356 95.3901L6.91795 97.1854C7.95676 99.3685 9.98314 101.581 11.8528 102.574C14.6814 104.077 13.1286 103.999 40.5 103.999C67.8714 103.999 66.3186 104.077 69.1472 102.574C71.0169 101.581 73.0432 99.3685 74.082 97.1854L74.9364 95.3901Z" fill="white"/>
</svg>
