<svg width="23" height="20" viewBox="0 0 23 20" fill="none" xmlns="http://www.w3.org/2000/svg">
<path fill-rule="evenodd" clip-rule="evenodd" d="M8.03352 5.04244V17.3949C8.90712 17.3413 9.81744 17.3109 10.7533 17.3062L10.7483 6.97664L9.07967 5.52384L9.07672 2.87674L11.8661 0.5V17.313C12.0027 17.3154 12.5189 17.3183 12.6544 17.3217V12.3314L14.3237 11.2931V6.18693L16.7612 8.51864L16.7572 12.0868L15.5005 11.1995L15.4498 17.5108C16.1519 17.5783 16.8229 17.6611 17.4558 17.7579V13.7547L18.6269 14.5265V17.9613C20.7866 18.3842 21.571 18.6576 22.2094 19.3445C16.3602 17.5408 5.92255 17.5389 0.0668945 19.3445C0.843946 18.5086 1.93934 18.1291 4.85534 17.7121L4.83926 7.10072L8.03352 5.04244Z" fill="white"/>
</svg>
