<svg width="24" height="24" viewBox="0 0 24 24" fill="currentColor" xmlns="http://www.w3.org/2000/svg">
<path d="M20.895 7.55312L18.895 3.55312C18.8119 3.38696 18.6841 3.24723 18.526 3.14956C18.368 3.05189 18.1858 3.00015 18 3.00012H13C12.621 3.00012 12.275 3.21412 12.105 3.55312L10.382 7.00012H6.00001C5.62101 7.00012 5.27501 7.21412 5.10501 7.55312L3.10501 11.5531C3.03549 11.6921 2.9993 11.8453 2.9993 12.0006C2.9993 12.156 3.03549 12.3092 3.10501 12.4481L5.10501 16.4481C5.27501 16.7861 5.62101 17.0001 6.00001 17.0001H10.382L12.106 20.4471C12.1888 20.6133 12.3164 20.7532 12.4743 20.8509C12.6322 20.9486 12.8143 21.0003 13 21.0001H18C18.379 21.0001 18.725 20.7861 18.895 20.4471L20.895 16.4471C20.9645 16.3082 21.0007 16.155 21.0007 15.9996C21.0007 15.8443 20.9645 15.6911 20.895 15.5521L19.118 12.0001L20.894 8.44712C20.9635 8.3084 20.9998 8.1554 21 8.00024C21.0002 7.84508 20.9642 7.692 20.895 7.55312ZM13.618 5.00012H17.382L18.882 8.00012L17.382 11.0001H13.618L12.118 8.00012L13.618 5.00012ZM5.11801 12.0001L6.61801 9.00012H10.382L11.882 12.0001L10.382 15.0001H6.61801L5.11801 12.0001ZM17.382 19.0001H13.618L12.118 16.0001L13.618 13.0001H17.382L18.882 16.0001L17.382 19.0001Z" fill="currentColor"/>
</svg>
