<svg width="24" height="24" viewBox="0 0 24 24" fill="none" xmlns="http://www.w3.org/2000/svg">
<path d="M6 9.00012V22.0001L8 22V15V12.5V9.00012H6Z" fill="#DBDBDB"/>
<path d="M18 22.0001V9.00012L16 9V22L18 22.0001Z" fill="#DBDBDB"/>
<path fill-rule="evenodd" clip-rule="evenodd" d="M2.288 8.00012C2.47933 8.28346 2.71667 8.51679 3 8.70012C3.33333 8.80008 4.2 9.00012 5 9.00012H6H8L11 9.00008L13 9.00005L16 9L18 9.00012H19C19.8 9.00022 20.6667 8.80016 21 8.70012C21.2833 8.51679 21.5207 8.28346 21.712 8.00012C21.904 7.71679 22 7.38346 22 7.00012V4.00012C22 3.45012 21.8043 2.97912 21.413 2.58712C21.021 2.19579 20.55 2.00012 20 2.00012H4C3.45 2.00012 2.97933 2.19579 2.588 2.58712C2.196 2.97912 2 3.45012 2 4.00012V7.00012C2 7.38346 2.096 7.71679 2.288 8.00012ZM20 4.00012V7.00012H4V4.00012H20Z" fill="#DBDBDB"/>
<path d="M5 9.00012C4.2 9.00012 3.33333 8.80008 3 8.70012V22H5V9.00012Z" fill="#DBDBDB"/>
<path d="M21 8.70012C20.6667 8.80016 19.8 9.00022 19 9.00012V22.0001H21V8.70012Z" fill="#DBDBDB"/>
</svg>
