<svg width="416" height="161" viewBox="0 0 416 161" fill="none" xmlns="http://www.w3.org/2000/svg">
<path d="M389.159 160.363C388.534 160.098 14.9774 160.855 14.5423 160.098L0.354419 145.91C0.192034 145.747 0.100313 145.526 0.0990185 145.295C0.48682 144.539 -0.487395 15.0818 0.354419 14.5521L14.4572 0.402062C15.6111 -0.278955 304.221 0.0331778 305.422 0.402062L323.195 18.1842C323.819 18.4301 400.273 17.6923 400.708 18.4396L415.624 33.3558C416.153 34.5003 416.097 133.047 415.624 134.276C414.99 134.55 389.963 160.571 389.159 160.363ZM15.5449 158.604H388.818L414.12 133.302V34.3489L399.715 19.9435C399.1 19.6881 322.637 20.4259 322.211 19.6881L304.429 1.91541H15.403L1.82054 15.5358V144.927L15.5449 158.604Z" fill="#F5C913"/>
<g style="mix-blend-mode:lighten" opacity="0.7">
<path d="M18.2406 152.116H386.122L407.612 130.626V37.0455L397.019 26.4519C394.181 25.5722 317.567 28.703 317.567 24.2953L301.695 8.42383H18.1081L8.328 18.204V142.203L18.2406 152.116Z" fill="url(#paint0_linear_7120_289420)"/>
<path opacity="0.3" d="M106.574 8.42383H18.1081L8.328 18.204V142.203L18.2406 152.116H42.9748C45.9448 81.2996 70.3573 47.2513 106.574 8.42383Z" fill="white"/>
<path opacity="0.3" d="M407.593 64.3619V37.0455L397 26.4519C394.162 25.5722 317.548 28.703 317.548 24.2953L301.676 8.42383H18.1081L8.328 18.204V96.8805C126.125 34.7187 286.609 36.2699 407.593 64.3619Z" fill="white"/>
</g>
<path d="M386.104 152.531C385.792 152.408 18.1651 152.777 17.9192 152.408L8.02545 142.514C7.5336 142.334 8.10122 18.4865 7.89313 18.2311C7.70396 17.7771 17.73 8.46986 17.7962 8.13881C17.7111 7.62805 301.629 8.24285 301.714 8.01585C302.13 7.90234 317.586 23.8779 317.898 24.0103C318.078 28.2951 394.617 24.9562 397.35 26.1763L407.944 36.7605C408.615 37.3091 407.877 130.36 407.944 130.946C407.594 131.05 386.52 152.644 386.104 152.531ZM18.4016 151.661H385.924L407.149 130.426V37.2239L396.82 26.8857C394.569 26.0723 315.968 29.0896 317.274 24.5873L301.535 8.84821H18.2881L8.78218 18.373V142.022L18.4016 151.661Z" fill="white"/>
<g style="mix-blend-mode:lighten">
<path d="M415.851 6.82483L406.317 0.166016V13.4932L415.851 6.82483Z" fill="black"/>
<path d="M405.494 6.82483L395.95 0.166016V13.4932L405.494 6.82483Z" fill="#524200"/>
<path d="M395.127 6.82483L385.583 0.166016V13.4932L395.127 6.82483Z" fill="#7B6300"/>
<path d="M384.76 6.82483L375.226 0.166016V13.4932L384.76 6.82483Z" fill="#A38400"/>
<path d="M374.403 6.82483L364.859 0.166016V13.4932L374.403 6.82483Z" fill="#CCA500"/>
<path d="M364.037 6.82483L354.493 0.166016V13.4932L364.037 6.82483Z" fill="#F5C913"/>
<path d="M353.67 6.82483L344.136 0.166016V13.4932L353.67 6.82483Z" fill="#FFD93E"/>
<path d="M343.313 6.82483L333.769 0.166016V13.4932L343.313 6.82483Z" fill="#FFE168"/>
<path d="M332.946 6.82483L323.403 0.166016V13.4932L332.946 6.82483Z" fill="#FFEA93"/>
</g>
<defs>
<linearGradient id="paint0_linear_7120_289420" x1="65.4389" y1="-38.9069" x2="335.273" y2="230.927" gradientUnits="userSpaceOnUse">
<stop stop-color="#FFEA93"/>
<stop offset="0.17" stop-color="#FFE168"/>
<stop offset="0.5" stop-color="#FFD93E"/>
<stop offset="0.96" stop-color="#A38400"/>
<stop offset="1" stop-color="#A38400"/>
</linearGradient>
</defs>
</svg>
